<svg width="32" height="32" viewBox="0 0 32 32" fill="none" xmlns="http://www.w3.org/2000/svg">
  <!-- Background circle -->
  <circle cx="16" cy="16" r="16" fill="#0EA5E9"/>
  
  <!-- Weather/Climate symbol (sun with cloud) -->
  <circle cx="13" cy="12" r="4" fill="#FCD34D" stroke="#F59E0B" stroke-width="0.5"/>
  <path d="M13 6v1.5M18.5 8.5l-1 1M20 12h-1.5M18.5 15.5l-1-1M13 18v-1.5M7.5 15.5l1-1M6 12h1.5M7.5 8.5l1 1" stroke="#F59E0B" stroke-width="1" stroke-linecap="round"/>
  
  <!-- Cloud -->
  <path d="M8 18c-1.5 0-3-1.2-3-2.7s1.5-2.7 3-2.7c0.2-1.8 1.8-3.3 3.8-3.3s3.6 1.5 3.8 3.3c1.5 0 3 1.2 3 2.7S17.1 18 15.6 18H8z" fill="#E5E7EB" stroke="#9CA3AF" stroke-width="0.5"/>
  
  <!-- Health monitoring symbol (heartbeat/pulse line) -->
  <path d="M4 24h4l2-4 2 8 2-6 2 2h12" stroke="#EF4444" stroke-width="2" stroke-linecap="round" stroke-linejoin="round" fill="none"/>
  
  <!-- Small health cross -->
  <g transform="translate(24, 8)">
    <circle cx="2" cy="2" r="3" fill="#EF4444"/>
    <path d="M2 0.5v3M0.5 2h3" stroke="white" stroke-width="0.8" stroke-linecap="round"/>
  </g>
</svg>